<?xml version="1.0" standalone="no"?>
<!DOCTYPE svg PUBLIC "-//W3C//DTD SVG 20010904//EN"
 "http://www.w3.org/TR/2001/REC-SVG-20010904/DTD/svg10.dtd">
<svg version="1.0" xmlns="http://www.w3.org/2000/svg"
 width="2340.000000pt" height="1080.000000pt" viewBox="0 0 2340.000000 1080.000000"
 preserveAspectRatio="xMidYMid meet">

<g transform="translate(0.000000,1080.000000) scale(0.100000,-0.100000)"
fill="#000000" stroke="none">
<path d="M0 5400 l0 -5400 5835 0 5835 0 0 2025 0 2025 30 0 30 0 0 -2025 0
-2025 5835 0 5835 0 0 5400 0 5400 -11700 0 -11700 0 0 -5400z m22848 5040 c6
-53 12 -67 37 -78 20 -9 33 -8 66 4 46 19 45 19 89 -63 l24 -46 -37 -31 c-25
-21 -37 -39 -37 -56 0 -17 12 -35 37 -56 l37 -31 -24 -46 c-44 -82 -43 -82
-89 -63 -49 19 -89 6 -96 -31 -17 -81 -8 -74 -88 -71 -68 3 -72 4 -75 28 -6
53 -12 67 -37 78 -20 9 -33 8 -66 -4 -46 -19 -45 -19 -89 63 l-24 46 34 29
c48 39 48 73 1 114 l-35 31 24 46 c44 82 43 82 90 63 32 -13 45 -14 63 -5 30
16 37 28 37 65 0 17 3 34 7 38 4 4 39 5 78 4 66 -3 70 -4 73 -28z m-15820
-301 c2 -5 35 -9 73 -9 39 0 69 -4 69 -10 0 -6 80 -10 220 -10 140 0 220 -4
220 -10 0 -6 57 -10 150 -10 93 0 150 -4 150 -10 0 -6 27 -10 60 -10 33 0 60
-4 60 -10 0 -6 60 -10 160 -10 100 0 160 -4 160 -10 0 -6 37 -10 90 -10 53 0
90 -4 90 -10 0 -5 18 -10 40 -10 22 0 40 -4 40 -10 0 -6 47 -10 120 -10 73 0
120 -4 120 -10 0 -6 30 -10 70 -10 40 0 70 -4 70 -10 0 -6 30 -10 70 -10 40 0
70 -4 70 -10 0 -5 14 -10 30 -10 17 0 30 -4 30 -10 0 -6 37 -10 90 -10 53 0
90 -4 90 -10 0 -6 27 -10 60 -10 33 0 60 -4 60 -10 0 -6 27 -10 60 -10 33 0
60 -4 60 -10 0 -5 14 -10 30 -10 17 0 30 -4 30 -10 0 -6 33 -10 80 -10 47 0
80 -4 80 -10 0 -5 23 -10 50 -10 28 0 50 -4 50 -10 0 -5 23 -10 50 -10 28 0
50 -4 50 -10 0 -5 18 -10 40 -10 22 0 40 -4 40 -10 0 -5 14 -10 30 -10 17 0
30 -4 30 -10 0 -6 30 -10 70 -10 40 0 70 -4 70 -10 0 -5 18 -10 40 -10 22 0
40 -4 40 -10 0 -5 23 -10 50 -10 28 0 50 -4 50 -10 0 -5 18 -10 40 -10 22 0
40 -4 40 -10 0 -5 18 -10 40 -10 22 0 40 -4 40 -10 0 -5 18 -10 40 -10 22 0
40 -4 40 -10 0 -5 18 -10 40 -10 22 0 40 -4 40 -10 0 -5 16 -10 36 -10 38 0
64 -18 64 -44 0 -9 5 -16 10 -16 6 0 10 -18 10 -40 0 -22 5 -40 10 -40 6 0 10
-25 10 -56 0 -30 11 -99 24 -152 13 -53 29 -128 36 -167 6 -38 20 -101 31
-140 10 -38 20 -94 21 -124 2 -32 7 -55 15 -58 7 -3 13 -14 13 -24 0 -10 5
-19 10 -19 6 0 10 -9 10 -20 0 -11 5 -20 10 -20 6 0 10 -22 10 -50 0 -27 5
-50 10 -50 6 0 10 -22 10 -50 0 -27 5 -50 10 -50 6 0 10 -33 10 -80 0 -47 4
-80 10 -80 6 0 10 -27 10 -60 0 -33 4 -60 10 -60 6 0 10 -13 10 -30 0 -16 5
-30 10 -30 6 0 10 -27 10 -60 0 -33 4 -60 10 -60 6 0 10 -27 10 -60 0 -33 4
-60 10 -60 6 0 10 -27 10 -60 0 -33 4 -60 10 -60 6 0 10 -33 10 -80 0 -47 4
-80 10 -80 6 0 10 -27 10 -60 0 -33 4 -60 10 -60 6 0 10 -47 10 -120 0 -73 4
-120 10 -120 6 0 10 -18 10 -40 0 -22 5 -40 10 -40 6 0 10 -37 10 -90 0 -53 4
-90 10 -90 6 0 10 -43 10 -110 0 -67 4 -110 10 -110 6 0 10 -47 10 -120 0 -73
4 -120 10 -120 6 0 10 -60 10 -160 0 -100 4 -160 10 -160 7 0 10 -297 10 -870
0 -573 -3 -870 -10 -870 -6 0 -10 -57 -10 -150 0 -93 -4 -150 -10 -150 -6 0
-10 -47 -10 -120 0 -73 -4 -120 -10 -120 -6 0 -10 -43 -10 -110 0 -67 -4 -110
-10 -110 -6 0 -10 -37 -10 -90 0 -53 -4 -90 -10 -90 -6 0 -10 -33 -10 -80 0
-47 -4 -80 -10 -80 -6 0 -10 -33 -10 -80 0 -47 -4 -80 -10 -80 -5 0 -10 -18
-10 -40 0 -22 -4 -40 -10 -40 -6 0 -10 -40 -10 -100 0 -60 -4 -100 -10 -100
-6 0 -10 -27 -10 -60 0 -33 -4 -60 -10 -60 -6 0 -10 -27 -10 -60 0 -33 -4 -60
-10 -60 -5 0 -10 -18 -10 -40 0 -22 -4 -40 -10 -40 -6 0 -10 -33 -10 -80 0
-47 -4 -80 -10 -80 -5 0 -10 -22 -10 -50 0 -27 -4 -50 -10 -50 -6 0 -10 -27
-10 -60 0 -33 -4 -60 -10 -60 -5 0 -10 -22 -10 -50 0 -27 -4 -50 -10 -50 -5 0
-10 -22 -10 -50 0 -27 -4 -50 -10 -50 -5 0 -10 -18 -10 -40 0 -22 -4 -40 -10
-40 -5 0 -10 -13 -10 -30 0 -16 -4 -30 -10 -30 -6 0 -10 -30 -10 -70 0 -40 -4
-70 -10 -70 -5 0 -10 -18 -10 -40 0 -22 -4 -40 -10 -40 -5 0 -10 -18 -10 -40
0 -22 -4 -40 -10 -40 -5 0 -10 -22 -10 -50 0 -27 -4 -50 -10 -50 -5 0 -10 -18
-10 -40 0 -22 -4 -40 -10 -40 -5 0 -10 -9 -10 -20 0 -11 -4 -20 -10 -20 -5 0
-10 -22 -10 -50 0 -27 -4 -50 -10 -50 -5 0 -10 -22 -10 -50 0 -27 -4 -50 -10
-50 -5 0 -10 -9 -10 -20 0 -13 -7 -20 -20 -20 -11 0 -20 -4 -20 -10 0 -5 -9
-10 -20 -10 -11 0 -20 -4 -20 -10 0 -5 -18 -10 -40 -10 -22 0 -40 -4 -40 -10
0 -5 -18 -10 -40 -10 -22 0 -40 -4 -40 -10 0 -5 -18 -10 -40 -10 -22 0 -40 -4
-40 -10 0 -5 -22 -10 -50 -10 -27 0 -50 -4 -50 -10 0 -5 -18 -10 -40 -10 -22
0 -40 -4 -40 -10 0 -5 -22 -10 -50 -10 -27 0 -50 -4 -50 -10 0 -5 -18 -10 -40
-10 -22 0 -40 -4 -40 -10 0 -6 -30 -10 -70 -10 -40 0 -70 -4 -70 -10 0 -5 -22
-10 -50 -10 -27 0 -50 -4 -50 -10 0 -5 -13 -10 -30 -10 -16 0 -30 -4 -30 -10
0 -6 -30 -10 -70 -10 -40 0 -70 -4 -70 -10 0 -5 -13 -10 -30 -10 -16 0 -30 -4
-30 -10 0 -5 -22 -10 -50 -10 -27 0 -50 -4 -50 -10 0 -6 -27 -10 -60 -10 -33
0 -60 -4 -60 -10 0 -6 -27 -10 -60 -10 -33 0 -60 -4 -60 -10 0 -6 -27 -10 -60
-10 -33 0 -60 -4 -60 -10 0 -6 -27 -10 -60 -10 -33 0 -60 -4 -60 -10 0 -6 -30
-10 -70 -10 -40 0 -70 -4 -70 -10 0 -6 -30 -10 -70 -10 -40 0 -70 -4 -70 -10
0 -6 -33 -10 -80 -10 -47 0 -80 -4 -80 -10 0 -6 -33 -10 -80 -10 -47 0 -80 -4
-80 -10 0 -6 -37 -10 -90 -10 -53 0 -90 -4 -90 -10 0 -6 -40 -10 -100 -10 -60
0 -100 -4 -100 -10 0 -6 -67 -10 -180 -10 -113 0 -180 -4 -180 -10 0 -6 -60
-10 -160 -10 -100 0 -160 -4 -160 -10 0 -6 -90 -10 -250 -10 -160 0 -250 -4
-250 -10 0 -7 -170 -10 -490 -10 -320 0 -490 3 -490 10 0 6 -43 10 -110 10
-67 0 -110 4 -110 10 0 6 -57 10 -150 10 -93 0 -150 4 -150 10 0 6 -70 10
-190 10 -120 0 -190 4 -190 10 0 6 -40 10 -100 10 -60 0 -100 4 -100 10 0 6
-37 10 -90 10 -53 0 -90 4 -90 10 0 6 -20 10 -44 10 -25 0 -48 4 -51 10 -3 6
-52 10 -110 10 -58 0 -107 4 -110 10 -3 5 -35 10 -70 10 -35 0 -67 5 -70 10
-3 6 -35 10 -70 10 -35 0 -67 4 -70 10 -3 5 -30 10 -60 10 -30 0 -57 5 -60 10
-3 6 -30 10 -60 10 -30 0 -57 5 -60 10 -3 6 -30 10 -60 10 -30 0 -57 5 -60 10
-3 6 -30 10 -60 10 -30 0 -57 5 -60 10 -3 6 -17 10 -30 10 -13 0 -27 4 -30 10
-3 5 -39 10 -80 10 -41 0 -77 4 -80 10 -3 5 -16 10 -27 10 -12 0 -32 10 -44
21 -20 19 -34 21 -113 20 -53 -1 -92 2 -96 9 -3 5 -17 10 -30 10 -13 0 -27 5
-30 10 -3 6 -32 10 -65 10 -45 0 -71 7 -115 30 -44 23 -70 30 -115 30 -33 0
-62 5 -65 10 -3 5 -21 10 -40 10 -19 0 -37 5 -40 10 -3 6 -26 10 -50 10 -24 0
-47 5 -50 10 -3 6 -21 10 -40 10 -19 0 -37 5 -40 10 -3 6 -20 10 -38 10 -48 0
-87 43 -87 96 0 24 -4 46 -10 49 -5 3 -10 26 -10 50 0 24 -5 47 -10 50 -5 3
-10 21 -10 40 0 19 -4 37 -10 40 -5 3 -10 21 -10 40 0 19 -4 37 -10 40 -5 3
-10 24 -10 45 0 22 -9 55 -20 75 -12 22 -20 54 -20 85 0 27 -4 52 -10 55 -6 3
-10 26 -10 50 0 24 -4 47 -10 50 -6 3 -10 51 -10 109 0 95 -2 104 -20 109 -15
4 -20 14 -20 36 0 17 -9 46 -20 66 -15 26 -20 54 -20 105 0 38 -4 72 -10 75
-5 3 -10 26 -10 50 0 24 -5 47 -10 50 -19 12 -12 97 11 121 l21 22 -27 31
c-33 37 -55 77 -55 102 0 10 -5 21 -10 24 -6 3 -10 30 -10 60 0 30 -4 57 -10
60 -5 3 -10 35 -10 70 0 35 -4 66 -9 69 -4 3 -10 50 -13 105 -4 89 -8 103 -31
131 -31 37 -36 93 -11 128 8 12 12 22 7 22 -30 0 -59 139 -33 155 6 3 10 37
10 75 0 38 5 72 10 75 6 4 -2 22 -20 43 -30 36 -30 37 -30 164 0 74 -4 129
-10 133 -6 4 -10 53 -10 115 0 62 -4 111 -10 115 -6 4 -10 185 -10 510 0 325
-4 506 -10 510 -14 8 -14 522 0 530 6 4 10 102 10 260 0 158 4 256 10 260 6 3
10 26 10 50 0 24 5 47 10 50 6 4 10 73 10 175 0 102 4 171 10 175 6 3 10 48
10 100 0 52 4 97 10 100 5 3 10 44 10 90 0 46 5 87 10 90 6 3 10 21 10 40 0
19 5 37 10 40 6 3 10 39 10 80 0 41 4 77 10 80 6 3 10 52 10 110 0 58 4 107
10 110 6 3 10 21 10 40 0 19 4 37 10 40 5 3 10 30 10 60 0 30 5 57 10 60 6 3
10 30 10 60 0 30 5 57 10 60 6 3 10 30 10 60 0 30 4 57 10 60 6 3 10 30 10 60
0 30 5 57 10 60 5 3 10 39 10 80 0 41 5 77 10 80 6 3 10 26 10 50 0 24 5 47
10 50 6 3 10 26 10 50 0 24 4 47 10 50 5 3 10 26 10 50 0 24 4 47 10 50 5 3
10 20 10 37 0 17 6 39 14 47 7 9 19 45 26 81 7 36 23 108 36 160 12 52 30 130
39 173 18 89 17 94 -51 165 -45 47 -63 81 -70 134 -9 63 11 123 57 173 56 61
97 70 240 55 63 -7 175 -14 249 -17 123 -4 149 -2 285 26 83 17 166 35 185 41
19 5 51 10 72 10 20 0 43 7 52 15 8 8 22 15 30 15 9 0 16 5 16 10 0 6 23 10
50 10 28 0 50 5 50 10 0 6 33 10 80 10 47 0 80 4 80 10 0 6 14 10 30 10 17 0
30 5 30 10 0 6 27 10 60 10 33 0 60 4 60 10 0 6 23 10 50 10 28 0 50 5 50 10
0 6 30 10 70 10 40 0 70 4 70 10 0 6 27 10 60 10 33 0 60 4 60 10 0 6 40 10
100 10 60 0 100 4 100 10 0 6 18 10 40 10 22 0 40 5 40 10 0 6 33 10 80 10 47
0 80 4 80 10 0 6 47 10 120 10 73 0 120 4 120 10 0 6 23 10 50 10 28 0 50 5
50 10 0 6 40 10 100 10 60 0 100 4 100 10 0 6 50 10 130 10 80 0 130 4 130 10
0 6 83 10 230 10 147 0 230 4 230 10 0 6 50 10 130 10 80 0 130 4 130 10 0 6
127 10 360 10 218 0 360 4 360 9 0 21 191 20 198 0z m10790 -6 c21 -9 44 -22
52 -29 15 -12 46 -16 255 -34 235 -20 321 -29 370 -40 28 -6 104 -15 170 -20
166 -13 273 -26 320 -40 22 -7 85 -16 140 -21 55 -4 127 -13 160 -19 33 -5 92
-14 130 -20 39 -5 93 -14 120 -20 28 -5 77 -14 110 -19 33 -5 80 -16 104 -25
24 -9 66 -16 94 -16 27 0 66 -4 86 -9 20 -5 59 -14 86 -19 28 -6 77 -15 110
-22 33 -6 96 -20 140 -30 44 -10 107 -24 140 -30 33 -7 132 -29 220 -50 88
-21 212 -50 275 -65 107 -25 117 -29 129 -56 14 -33 50 -167 58 -217 3 -18 9
-35 14 -38 5 -3 9 -20 9 -39 0 -19 5 -37 10 -40 6 -3 10 -26 10 -50 0 -24 5
-47 10 -50 6 -3 10 -28 10 -55 0 -31 8 -63 20 -85 13 -23 20 -54 20 -90 0 -36
7 -67 20 -90 11 -20 20 -53 20 -75 0 -21 5 -42 10 -45 6 -3 10 -26 10 -50 0
-24 5 -47 10 -50 6 -3 10 -26 10 -50 0 -24 5 -47 10 -50 6 -3 10 -26 10 -50 0
-24 5 -47 10 -50 6 -3 10 -26 10 -50 0 -24 5 -47 10 -50 6 -3 10 -30 10 -60 0
-30 5 -57 10 -60 6 -3 10 -30 10 -60 0 -30 5 -57 10 -60 6 -3 10 -30 10 -60 0
-30 5 -57 10 -60 6 -3 10 -35 10 -70 0 -35 5 -67 10 -70 6 -3 10 -30 10 -60 0
-30 5 -57 10 -60 6 -3 10 -15 10 -25 0 -11 9 -35 20 -55 18 -32 20 -54 20
-205 0 -102 4 -171 10 -175 6 -3 10 -44 10 -90 0 -46 5 -87 10 -90 6 -3 10
-48 10 -100 0 -52 4 -97 10 -100 6 -4 10 -75 10 -180 0 -105 4 -176 10 -180 6
-3 10 -39 10 -80 0 -41 5 -77 10 -80 7 -4 10 -330 10 -945 0 -615 -3 -941 -10
-945 -6 -4 -10 -62 -10 -140 0 -78 -4 -136 -10 -140 -6 -4 -10 -55 -10 -120 0
-65 -4 -116 -10 -120 -6 -3 -10 -48 -10 -100 0 -52 -4 -97 -10 -100 -5 -3 -10
-26 -10 -50 0 -24 -4 -47 -10 -50 -6 -4 -10 -55 -10 -120 0 -65 -4 -116 -10
-120 -5 -3 -10 -39 -10 -80 0 -41 -4 -77 -10 -80 -5 -3 -10 -35 -10 -70 0 -35
-4 -67 -10 -70 -5 -3 -10 -35 -10 -70 0 -35 -4 -67 -10 -70 -5 -3 -10 -30 -10
-60 0 -30 -4 -57 -10 -60 -5 -3 -10 -25 -10 -47 0 -40 -13 -94 -31 -130 -5
-10 -9 -40 -9 -67 0 -28 -4 -53 -10 -56 -5 -3 -10 -39 -10 -80 0 -41 -4 -77
-10 -80 -5 -3 -10 -26 -10 -50 0 -24 -4 -47 -10 -50 -5 -3 -10 -26 -10 -50 0
-24 -4 -47 -10 -50 -5 -3 -10 -26 -10 -50 0 -24 -4 -47 -10 -50 -5 -3 -10 -26
-10 -50 0 -24 -4 -47 -10 -50 -5 -3 -10 -21 -10 -40 0 -19 -4 -37 -10 -40 -5
-3 -10 -26 -10 -50 0 -24 -4 -47 -10 -50 -5 -3 -10 -21 -10 -40 0 -19 -4 -37
-10 -40 -5 -3 -10 -26 -10 -50 0 -24 -4 -47 -10 -50 -5 -3 -10 -21 -10 -40 0
-19 -4 -37 -10 -40 -5 -3 -10 -19 -10 -35 0 -16 -9 -45 -20 -65 -12 -22 -20
-54 -20 -85 0 -27 -4 -52 -10 -55 -5 -3 -10 -20 -10 -36 0 -28 -23 -76 -45
-91 -5 -4 -22 -8 -37 -8 -15 0 -30 -4 -33 -10 -3 -5 -21 -10 -40 -10 -19 0
-37 -4 -40 -10 -3 -5 -28 -10 -55 -10 -31 0 -63 -8 -85 -20 -20 -11 -53 -20
-75 -20 -21 0 -42 -4 -45 -10 -3 -5 -21 -10 -40 -10 -19 0 -37 -4 -40 -10 -3
-5 -21 -10 -40 -10 -19 0 -37 -4 -40 -10 -3 -5 -26 -10 -50 -10 -24 0 -47 -5
-50 -10 -3 -6 -33 -10 -65 -10 -41 0 -71 -6 -95 -20 -20 -11 -53 -20 -75 -20
-21 0 -42 -4 -45 -10 -3 -5 -26 -10 -50 -10 -24 0 -47 -5 -50 -10 -3 -6 -39
-10 -80 -10 -41 0 -77 -4 -80 -10 -3 -5 -17 -10 -30 -10 -13 0 -27 -5 -30 -10
-3 -6 -30 -10 -60 -10 -30 0 -57 -4 -60 -10 -3 -5 -30 -10 -60 -10 -30 0 -57
-4 -60 -10 -3 -5 -30 -10 -60 -10 -30 0 -57 -5 -60 -10 -3 -6 -30 -10 -60 -10
-30 0 -57 -4 -60 -10 -3 -6 -48 -10 -100 -10 -52 0 -97 -4 -100 -10 -3 -5 -21
-10 -40 -10 -19 0 -37 -5 -40 -10 -3 -6 -35 -10 -70 -10 -35 0 -67 -5 -70 -10
-3 -6 -44 -10 -90 -10 -46 0 -87 -4 -90 -10 -3 -5 -44 -10 -90 -10 -46 0 -87
-4 -90 -10 -3 -6 -48 -10 -100 -10 -52 0 -97 -4 -100 -10 -3 -6 -52 -10 -110
-10 -58 0 -107 -4 -110 -10 -4 -6 -92 -10 -230 -10 -138 0 -226 -4 -230 -10
-9 -15 -430 -13 -455 2 -16 10 -22 9 -38 -10 l-19 -22 -467 0 c-304 0 -466 3
-466 10 0 6 -47 10 -120 10 -73 0 -120 4 -120 10 0 6 -57 10 -150 10 -93 0
-150 4 -150 10 0 6 -66 10 -179 10 -109 0 -182 4 -186 10 -3 6 -48 10 -100 10
-52 0 -97 4 -100 10 -3 5 -44 10 -90 10 -46 0 -86 4 -89 9 -7 11 -56 18 -201
31 -60 5 -139 14 -175 19 -36 5 -99 14 -140 20 -41 6 -100 15 -130 20 -30 5
-86 15 -125 21 -38 6 -92 15 -120 20 -27 5 -79 13 -115 18 -36 6 -85 17 -109
26 -24 9 -62 16 -86 16 -23 0 -68 9 -100 20 -32 11 -78 20 -102 20 -25 0 -65
10 -91 22 -31 15 -62 21 -92 19 -25 -1 -73 7 -106 18 -62 19 -219 54 -304 66
-24 3 -49 10 -55 14 -19 16 -89 32 -177 41 -50 5 -97 15 -110 24 -23 16 -48
81 -48 127 0 15 -7 40 -15 55 -8 16 -15 40 -15 54 0 14 -6 36 -13 50 -17 32
-37 109 -47 180 -14 101 -42 235 -56 267 -8 17 -14 36 -14 42 0 6 -7 11 -15
11 -32 0 -46 71 -20 106 17 22 20 70 5 79 -16 10 -12 85 5 102 21 20 15 34
-23 58 -26 16 -31 27 -32 57 0 28 5 38 20 43 23 7 90 70 90 85 0 18 -21 21
-36 5 -11 -10 -29 -15 -53 -13 -36 3 -36 3 -36 48 0 41 2 46 31 55 l31 10 -19
30 c-10 17 -21 37 -24 45 -4 8 -14 23 -22 33 -18 20 -32 45 -63 107 -22 45
-31 107 -47 311 -5 58 -12 111 -16 117 -13 21 4 77 27 87 40 19 32 35 -17 35
-48 0 -51 5 -48 60 0 8 -5 23 -11 35 -17 31 -10 136 11 151 16 13 16 13 0 14
-10 0 -18 3 -19 8 0 4 -5 45 -10 92 -36 309 -49 497 -55 785 -3 138 -9 254
-15 260 -5 5 -9 82 -9 171 0 98 -4 165 -10 169 -6 4 -10 113 -10 295 0 182 4
291 10 295 6 4 10 112 10 290 0 178 4 286 10 290 6 4 10 65 10 150 0 85 4 146
10 150 6 4 10 58 10 130 0 72 4 126 10 130 6 3 10 48 10 100 0 52 4 97 10 100
6 3 10 44 10 90 0 46 5 87 10 90 6 3 10 44 10 90 0 46 5 87 10 90 6 3 10 35
10 70 0 35 5 67 10 70 6 3 10 35 10 70 0 35 5 67 10 70 6 3 10 35 10 70 0 35
5 67 10 70 6 3 10 35 10 70 0 35 5 67 10 70 6 3 10 30 10 60 0 30 5 57 10 60
6 3 10 28 10 55 0 31 8 63 20 85 15 27 20 54 20 115 0 43 5 82 10 85 6 3 10
26 10 50 0 24 5 47 10 50 6 3 10 26 10 50 0 24 5 47 10 50 6 3 10 26 10 50 0
24 5 47 10 50 6 3 10 26 10 50 0 24 5 47 10 50 6 3 10 21 10 40 0 19 5 37 10
40 6 3 10 21 10 40 0 19 5 37 10 40 6 3 10 26 10 50 0 24 5 47 10 50 6 3 10
21 10 40 0 19 5 37 10 40 6 3 10 26 10 50 0 24 5 47 10 50 6 3 10 21 10 40 0
19 5 37 10 40 6 3 10 24 10 46 0 21 5 39 10 39 6 0 10 15 10 34 0 19 5 38 10
41 6 3 10 19 10 35 0 34 34 96 60 110 10 6 30 10 44 10 14 0 28 5 31 10 3 6
21 10 40 10 19 0 37 5 40 10 3 6 21 10 40 10 19 0 37 5 40 10 3 6 21 10 40 10
19 0 37 5 40 10 3 6 21 10 40 10 19 0 37 5 40 10 3 6 26 10 50 10 24 0 47 5
50 10 3 6 21 10 40 10 19 0 37 5 40 10 3 6 35 10 70 10 35 0 67 5 70 10 3 6
21 10 40 10 19 0 37 5 40 10 3 6 25 10 49 10 23 0 46 4 51 9 11 10 212 47 298
56 32 3 65 10 75 15 20 11 296 56 396 64 37 3 74 10 80 15 6 5 50 15 96 21 47
6 112 16 145 21 33 5 119 13 190 18 72 5 144 14 160 21 37 14 170 28 385 40
91 5 188 14 215 20 183 40 1385 67 1945 45 139 -5 161 -4 210 14 69 24 150 26
198 4z m-16475 -465 l82 82 23 -22 22 -23 -82 -82 -83 -83 83 -83 82 -82 -22
-23 -23 -22 -82 82 -83 83 -83 -83 -82 -82 -23 22 -22 23 82 82 83 83 -83 83
-82 82 22 23 23 22 82 -82 83 -83 83 83z"/>
<path d="M22699 10241 c-64 -65 -20 -171 71 -171 33 0 48 6 71 29 64 65 20
171 -71 171 -33 0 -48 -6 -71 -29z"/>
</g>
</svg>
